<?xml version="1.0" standalone="no"?>
<!DOCTYPE svg PUBLIC "-//W3C//DTD SVG 20010904//EN"
 "http://www.w3.org/TR/2001/REC-SVG-20010904/DTD/svg10.dtd">
<svg version="1.0" xmlns="http://www.w3.org/2000/svg"
 width="503.000000pt" height="503.000000pt" viewBox="0 0 503.000000 503.000000"
 preserveAspectRatio="xMidYMid meet">
<metadata>
Created by potrace 1.11, written by Peter Selinger 2001-2013
</metadata>
<g transform="translate(0.000000,503.000000) scale(0.100000,-0.100000)"
fill="#000000" stroke="none">
<path d="M2561 4679 c-12 -41 -46 -124 -76 -186 -65 -135 -77 -176 -74 -257 3
-73 31 -160 94 -293 109 -227 123 -327 66 -470 l-18 -47 -17 56 c-23 81 -82
153 -270 332 -222 212 -294 311 -326 445 -12 52 -9 147 6 186 7 17 1 15 -42
-10 -27 -16 -132 -77 -234 -135 -691 -398 -836 -483 -843 -490 -11 -10 -11
-1940 0 -1950 4 -5 62 -39 128 -78 178 -103 445 -257 485 -279 19 -11 175
-101 345 -200 576 -334 714 -413 721 -413 3 0 123 68 267 151 144 84 283 164
308 178 83 47 334 192 349 202 8 5 175 101 370 213 195 112 363 210 374 218
18 13 18 47 19 981 0 554 -4 972 -9 977 -8 8 -943 550 -949 550 -1 0 -40 22
-86 50 -46 27 -87 50 -91 50 -4 0 -10 -10 -13 -22 -4 -13 -27 -67 -52 -120
-64 -139 -63 -205 4 -348 63 -135 74 -167 80 -225 4 -45 1 -76 -12 -114 -18
-54 -23 -58 -30 -23 -9 49 -46 96 -180 227 -206 201 -248 269 -247 397 0 83
45 162 153 268 l86 84 -126 74 c-69 41 -129 79 -132 84 -4 6 -16 -23 -28 -63z"/>
<path d="M613 743 c-3 -7 2 -24 11 -38 12 -19 21 -23 34 -17 9 5 23 7 30 6 6
-1 18 -2 25 -3 9 -1 12 -43 11 -178 0 -98 1 -185 3 -193 5 -17 43 -25 43 -9 0
6 4 7 10 4 6 -4 7 2 1 18 -5 13 -5 30 -1 37 5 9 4 20 -2 27 -7 9 -7 13 0 13
11 0 11 18 0 35 -4 6 -3 17 1 24 5 7 5 28 1 47 -5 21 -4 34 2 34 7 0 6 5 -1
13 -6 8 -8 16 -5 20 9 9 12 57 3 57 -5 0 -4 11 1 24 5 13 7 26 5 28 -2 2 19 4
48 3 43 0 52 3 55 19 6 31 -26 40 -152 41 -87 0 -120 -3 -123 -12z"/>
<path d="M1114 749 c-2 -4 -5 -102 -5 -219 -1 -165 2 -214 12 -220 7 -5 50 -8
96 -7 48 1 85 -2 87 -8 3 -5 5 -5 5 2 1 7 7 10 15 7 20 -8 29 27 12 44 -10 10
-39 15 -93 16 -76 1 -78 2 -78 26 -1 14 -5 31 -9 39 -6 9 -5 12 2 7 7 -4 10 5
8 29 -4 35 -4 35 38 36 22 1 58 1 79 1 44 -1 58 18 32 44 -12 12 -35 17 -83
18 -67 1 -67 1 -65 29 2 19 -2 25 -10 20 -7 -4 -6 1 2 11 13 15 13 19 0 27
-10 6 -11 9 -1 9 7 0 12 8 10 17 -2 13 6 17 39 18 29 2 40 -1 36 -9 -5 -7 -2
-7 8 0 8 7 31 10 51 8 30 -2 38 1 44 18 4 15 1 24 -12 32 -21 11 -213 16 -220
5z"/>
<path d="M1694 747 c-2 -7 -33 -102 -69 -212 -52 -160 -62 -202 -52 -214 10
-12 9 -13 -2 -6 -10 5 -12 4 -7 -3 12 -19 51 -7 54 16 2 12 7 22 12 22 5 0 7
6 4 14 -3 8 0 17 5 21 6 3 9 11 6 16 -7 11 -3 11 92 13 l72 1 12 -42 c6 -24
16 -43 21 -43 5 0 7 -4 3 -9 -8 -14 12 -23 34 -16 20 6 19 36 -2 63 -5 6 -6
12 -2 12 4 0 3 6 -2 13 -6 6 -9 22 -8 34 1 12 -3 21 -9 20 -5 -1 -10 5 -11 13
-1 22 -34 132 -45 152 -6 10 -10 29 -10 43 0 14 -4 25 -10 25 -5 0 -10 10 -10
23 0 37 -64 74 -76 44z m48 -125 c5 -15 11 -32 12 -39 1 -7 5 -16 9 -19 4 -4
7 -17 7 -29 0 -12 3 -25 7 -29 22 -22 8 -31 -48 -31 -54 0 -58 2 -52 20 4 11
7 28 7 38 0 9 3 17 7 17 7 0 24 75 22 97 -1 20 17 3 29 -25z"/>
<path d="M2077 740 c-6 -22 3 -40 19 -40 8 0 14 -6 14 -12 0 -8 3 -9 8 -3 4 6
21 10 37 10 l30 0 1 -175 c2 -239 0 -220 28 -218 14 1 22 6 20 10 -3 4 -1 8 4
8 5 0 9 7 9 15 0 8 -5 15 -11 15 -7 0 -7 3 -1 8 14 10 14 72 1 72 -8 0 -8 3
-1 8 14 9 14 65 0 74 -7 5 -7 8 1 8 12 0 13 88 1 108 -5 6 -4 12 1 12 5 0 9 8
9 18 0 36 3 39 43 36 26 -2 45 3 55 12 16 16 11 39 -6 28 -5 -3 -8 0 -7 7 2
10 -26 13 -124 14 -105 0 -128 -3 -131 -15z"/>
<path d="M2623 749 c-42 -16 -56 -46 -58 -124 0 -41 -4 -77 -8 -81 -3 -4 -3
-12 0 -18 4 -6 8 -44 9 -85 1 -45 6 -76 13 -81 7 -4 12 -10 11 -14 -1 -11 27
-36 34 -29 3 4 6 2 6 -4 0 -14 141 -15 158 -1 6 6 12 7 12 4 0 -11 50 46 51
58 2 25 1 272 -1 279 -2 4 -3 10 -5 15 -14 51 -18 62 -23 57 -3 -3 -14 2 -24
12 -19 17 -139 26 -175 12z m157 -68 c19 -18 22 -271 3 -297 -9 -12 -30 -18
-65 -21 -63 -3 -88 3 -88 23 0 8 -5 14 -11 14 -5 0 -7 4 -4 10 11 17 11 90 0
91 -6 0 -6 2 1 5 11 5 10 48 -2 78 -4 12 -4 17 2 13 5 -3 10 3 10 14 0 10 -4
19 -8 19 -4 0 -1 12 7 27 8 15 12 29 10 32 -8 13 131 6 145 -8z"/>
<path d="M3115 751 c-8 -14 -8 -412 0 -433 8 -19 42 -20 50 0 3 8 0 10 -8 6
-9 -6 -9 -4 -1 7 12 17 12 68 0 88 -6 9 -5 12 1 8 6 -4 14 4 17 18 4 15 14 25
24 25 14 0 15 2 2 10 -12 8 -12 10 3 15 9 4 23 0 32 -9 9 -9 13 -16 8 -16 -4
0 0 -5 10 -11 9 -5 17 -17 17 -24 0 -8 5 -15 12 -15 6 0 9 -3 5 -6 -3 -4 -1
-12 6 -20 29 -33 37 -44 37 -53 0 -16 48 -44 64 -38 12 5 12 11 3 31 -7 14
-15 26 -19 26 -5 0 -8 7 -8 15 0 9 -7 18 -15 21 -8 4 -15 13 -15 21 0 9 -7 21
-14 27 -8 6 -16 17 -18 25 -2 8 -10 22 -18 32 -32 38 -40 48 -40 54 0 3 5 3
10 0 6 -3 10 0 10 8 0 8 11 26 25 41 13 14 21 26 18 26 -3 0 4 9 17 20 13 11
20 20 17 20 -3 0 5 12 18 26 27 29 22 47 -15 57 -15 4 -36 -18 -100 -104 -45
-60 -83 -109 -85 -109 -2 0 -2 18 0 40 3 28 1 39 -7 34 -7 -5 -8 -2 -2 7 4 8
9 34 10 59 0 33 -4 50 -19 63 -23 20 -24 20 -32 8z"/>
<path d="M3634 751 c-2 -2 -4 -102 -4 -222 l0 -219 24 -6 c14 -3 30 -3 35 1 6
3 11 0 11 -7 0 -8 3 -9 8 -3 4 6 41 10 82 10 59 0 75 3 77 15 6 34 -13 43 -96
43 -64 -1 -81 2 -81 14 0 9 -5 11 -12 7 -10 -6 -10 -5 -2 7 7 8 11 33 10 57
-1 25 3 47 11 54 10 8 13 7 13 -3 0 -9 3 -10 8 -4 4 6 14 10 22 10 8 0 18 -4
22 -10 5 -6 8 -6 8 1 0 7 13 10 31 8 33 -4 58 13 51 34 -2 7 -8 10 -13 6 -5
-3 -9 1 -9 8 0 10 -18 13 -70 11 -76 -2 -72 -6 -72 62 0 75 -3 71 60 70 31 0
63 -4 70 -8 7 -5 12 -3 12 3 0 7 7 10 14 7 24 -9 32 34 10 47 -18 10 -210 16
-220 7z"/>
<path d="M4129 758 c-11 -36 -14 -152 -5 -167 4 -6 4 -11 -1 -11 -4 0 -8 -56
-8 -125 0 -69 3 -125 8 -125 4 0 7 -7 7 -16 0 -11 5 -14 16 -10 9 3 19 6 23 6
3 0 6 70 6 155 0 85 3 155 7 155 5 0 8 -7 8 -15 0 -8 4 -15 9 -15 5 0 12 -11
15 -25 4 -14 12 -25 19 -25 8 0 7 -4 -3 -10 -13 -8 -12 -10 3 -10 10 0 15 -4
12 -10 -3 -5 -1 -10 4 -10 6 0 11 -5 11 -11 0 -7 8 -18 18 -26 9 -8 11 -11 3
-8 -16 9 15 -43 39 -63 8 -8 10 -11 3 -7 -7 3 0 -12 14 -35 15 -22 31 -40 35
-40 5 0 6 -5 3 -10 -4 -6 3 -6 18 1 15 7 23 18 22 32 -1 12 2 30 7 41 7 13 7
16 -1 12 -6 -4 -11 -1 -11 8 0 8 5 18 10 21 6 4 7 11 3 18 -11 18 -9 217 2
217 6 0 5 3 -1 8 -6 4 -10 23 -9 43 2 30 -2 39 -20 47 -17 8 -26 8 -32 -1 -5
-7 -9 -82 -9 -168 1 -125 -1 -153 -11 -140 -7 9 -13 22 -13 29 0 6 -5 12 -11
12 -5 0 -7 5 -4 10 3 6 1 10 -5 10 -6 0 -8 5 -5 10 3 6 2 10 -3 10 -5 0 -17
18 -27 40 -10 22 -23 40 -28 40 -6 0 -7 3 -4 6 4 4 -2 19 -13 34 -11 16 -20
33 -20 39 0 6 -4 11 -10 11 -5 0 -10 7 -10 15 0 8 -5 15 -12 15 -6 0 -8 3 -5
7 4 3 -1 12 -11 19 -16 12 -31 18 -33 12z"/>
</g>
</svg>
