<?xml version="1.0" standalone="no"?>
<!DOCTYPE svg PUBLIC "-//W3C//DTD SVG 20010904//EN"
 "http://www.w3.org/TR/2001/REC-SVG-20010904/DTD/svg10.dtd">
<svg version="1.0" xmlns="http://www.w3.org/2000/svg"
 width="512.000000pt" height="512.000000pt" viewBox="0 0 512.000000 512.000000"
 preserveAspectRatio="xMidYMid meet">
<metadata>
Created by potrace 1.11, written by Peter Selinger 2001-2013
</metadata>
<g transform="translate(0.000000,512.000000) scale(0.100000,-0.100000)"
fill="#000000" stroke="none">
<path d="M2626 4945 c-16 -54 -58 -153 -93 -222 -74 -145 -93 -209 -93 -309 0
-101 34 -210 130 -414 118 -250 142 -368 104 -513 -20 -79 -56 -150 -62 -123
-2 11 -15 28 -28 38 -12 10 -26 29 -30 41 -19 63 -147 209 -299 341 -239 208
-412 406 -475 543 -12 26 -26 56 -31 65 -5 10 -9 25 -9 33 0 12 -16 15 -85 15
-47 0 -85 4 -85 8 0 5 15 16 33 26 99 52 224 175 196 192 -8 5 -9 3 -5 -5 5
-8 3 -11 -7 -9 -8 2 -331 -179 -716 -401 l-701 -405 -1 -1225 c-1 -674 -2
-1246 -3 -1270 l-1 -43 1090 -630 c600 -347 1095 -632 1100 -634 6 -2 503 281
1105 629 l1095 632 1 575 c1 316 -2 555 -6 530 -4 -25 -8 143 -8 374 -2 465
-19 1002 -33 1028 -8 15 -160 102 -604 343 -317 172 -440 235 -458 235 -20 0
-77 29 -88 44 -4 5 -73 8 -153 7 -80 -1 -146 1 -146 5 0 4 11 37 24 74 21 57
23 73 14 113 -10 51 -23 60 -33 25 -4 -13 -31 -75 -61 -138 -97 -207 -94 -269
22 -517 73 -156 88 -209 81 -302 -7 -109 -49 -200 -64 -141 -3 11 -11 20 -19
20 -7 0 -21 17 -31 38 -22 45 -129 159 -258 272 -196 173 -282 300 -313 463
l-16 87 -48 0 -48 0 6 43 c11 75 24 115 73 224 49 109 91 231 91 262 -1 9 -6
29 -13 44 -12 28 -13 26 -41 -68z m1480 -1929 l-106 -114 0 -483 0 -484 -464
3 -463 3 -126 -128 -126 -128 695 -3 694 -2 0 -155 0 -155 -1650 0 -1650 0 0
155 0 155 696 0 696 0 -303 313 c-167 171 -372 382 -455 467 -84 85 -178 183
-209 217 -32 35 -61 61 -65 58 -4 -2 -22 12 -41 32 -19 20 -28 32 -20 28 10
-5 12 -4 7 4 -4 6 -11 9 -15 7 -8 -5 -261 245 -261 258 0 4 5 4 12 0 15 -9 2
14 -25 44 l-20 22 1652 0 1653 0 -106 -114z"/>
<path d="M1245 2760 c10 -11 20 -20 23 -20 3 0 -3 9 -13 20 -10 11 -20 20 -23
20 -3 0 3 -9 13 -20z"/>
<path d="M3526 2414 l-269 -279 268 -3 c147 -1 270 -1 272 1 2 2 2 129 1 282
l-3 278 -269 -279z"/>
<path d="M2886 4789 c-19 -16 -52 -54 -72 -82 -36 -51 -35 -50 47 28 46 44 86
81 88 82 2 2 -3 3 -12 3 -9 0 -32 -14 -51 -31z"/>
</g>
</svg>
